<?xml version="1.0" encoding="UTF-8"?>
<svg version="1.1" xmlns="http://www.w3.org/2000/svg" width="256" height="256">
<path d="M0 0 C0.74830078 -0.02352539 1.49660156 -0.04705078 2.26757812 -0.07128906 C5.36464896 0.0015347 7.60948748 0.12650452 10.11157227 2.05395508 C12.56755837 4.83241326 14.1516344 7.42269183 14.4375 11.125 C14.54384766 12.14013672 14.54384766 12.14013672 14.65234375 13.17578125 C14.5 15.8125 14.5 15.8125 13.81347656 17.8449707 C13.02797969 20.27591231 12.5207817 22.25203284 12.5 24.8125 C14.25452737 27.92763552 16.69027859 30.05178063 19.375 32.375 C20.05175781 33.00212891 20.72851562 33.62925781 21.42578125 34.27539062 C23.09519382 35.8154825 24.78439397 37.3243056 26.5 38.8125 C29.88712587 36.82715091 33.11793356 34.71859591 36.3125 32.4375 C38.04033082 31.22725727 39.76942734 30.01881881 41.5 28.8125 C42.13808594 28.36519531 42.77617188 27.91789062 43.43359375 27.45703125 C65.7183767 12.64843355 95.65120642 8.63189184 121.5 13.8125 C139.91030971 17.80360586 154.5410348 25.55666325 169.5 36.8125 C170.49 37.4725 171.48 38.1325 172.5 38.8125 C174.8784607 36.60810567 177.22282389 34.37046096 179.5625 32.125 C180.23861328 31.49916016 180.91472656 30.87332031 181.61132812 30.22851562 C183.40205722 28.49232651 185.03996166 26.83538196 186.5 24.8125 C186.64053675 22.128232 186.64053675 22.128232 185.5 19.8125 C183.95480028 9.78587071 183.95480028 9.78587071 185.5 5.8125 C187.52119381 3.21270526 189.15434596 1.15992957 192.43847656 0.31201172 C194.66673363 0.10391153 196.825381 0.0808337 199.0625 0.125 C199.81724609 0.09728516 200.57199219 0.06957031 201.34960938 0.04101562 C203.56941611 0.05079451 205.37646186 0.16046977 207.5 0.8125 C209.96797396 3.68788554 211.23252751 6.10448459 212.5625 9.625 C212.871875 10.346875 213.18125 11.06875 213.5 11.8125 C214.49 12.1425 215.48 12.4725 216.5 12.8125 C216.5 13.4725 216.5 14.1325 216.5 14.8125 C217.20125 15.06 217.9025 15.3075 218.625 15.5625 C222.06363367 17.05755812 224.62967616 18.36060212 227.5 20.8125 C228.39399412 23.64335606 228.34062013 26.30232858 228.25 29.25 C228.27320313 30.00087891 228.29640625 30.75175781 228.3203125 31.52539062 C228.28745759 34.63839295 228.19141709 36.90485245 226.26733398 39.43066406 C223.43316242 41.94292416 220.83956467 43.45186661 217.0625 43.6875 C216.29808594 43.73519531 215.53367188 43.78289063 214.74609375 43.83203125 C211.60126236 43.80468489 208.59086346 43.36885542 205.5 42.8125 C202.5468522 42.50242773 202.5468522 42.50242773 200.87426758 44.09765625 C200.30345459 44.68417969 199.7326416 45.27070312 199.14453125 45.875 C198.52255859 46.50664063 197.90058594 47.13828125 197.25976562 47.7890625 C196.61716797 48.45679688 195.97457031 49.12453125 195.3125 49.8125 C194.65830078 50.48023438 194.00410156 51.14796875 193.33007812 51.8359375 C191.71313865 53.48828441 190.10359509 55.14721601 188.5 56.8125 C188.88881348 57.41594238 189.27762695 58.01938477 189.67822266 58.64111328 C196.64673686 69.57197136 203.09003912 83.0250003 205.6875 95.8125 C205.84605469 96.575625 206.00460938 97.33875 206.16796875 98.125 C206.27753906 98.681875 206.38710937 99.23875 206.5 99.8125 C207.16 99.8125 207.82 99.8125 208.5 99.8125 C209.52530403 100.78653883 210.51769502 101.7951127 211.5 102.8125 C213.046875 103.9571875 213.046875 103.9571875 214.625 105.125 C217.5 107.8125 217.5 107.8125 218.6875 110.75 C218.42201447 115.08626364 216.48103807 116.76371107 213.5 119.8125 C212.943125 120.43125 212.38625 121.05 211.8125 121.6875 C210.5 122.8125 210.5 122.8125 208.5 122.8125 C208.42072266 123.49538086 208.34144531 124.17826172 208.25976562 124.88183594 C205.78225239 145.31105422 201.35969324 166.15046067 187.9375 182.5 C185.25495775 185.83853511 182.81053009 189.20807306 180.5 192.8125 C182.09792764 194.46439143 183.70355876 196.1088339 185.3125 197.75 C186.20582031 198.66652344 187.09914062 199.58304688 188.01953125 200.52734375 C190.35436593 202.99185108 190.35436593 202.99185108 193.5 203.8125 C194.20760032 205.1245686 194.86790252 206.46243519 195.5 207.8125 C197.8284336 210.97291587 200.21515538 213.63579573 203.5 215.8125 C205.98866787 215.85271187 207.77907254 215.28203114 210.1328125 214.49609375 C212.82030035 213.72000402 214.96163169 213.65115525 217.75 213.8125 C218.53890625 213.85375 219.3278125 213.895 220.140625 213.9375 C223.69441258 215.25546096 225.69375778 217.5850672 227.5 220.8125 C228.10952609 223.74769361 228.40574951 225.89334621 228.375 228.8125 C228.3737915 229.87597656 228.3737915 229.87597656 228.37255859 230.9609375 C228.19523891 234.44579567 227.77991546 236.4721228 225.546875 239.1875 C222.63320142 241.14248099 220.07549422 242.8125 216.5 242.8125 C216.17 243.8025 215.84 244.7925 215.5 245.8125 C214.84 245.8125 214.18 245.8125 213.5 245.8125 C213.2525 246.51375 213.005 247.215 212.75 247.9375 C211.25494188 251.37613367 209.95189788 253.94217616 207.5 256.8125 C204.66914394 257.70649412 202.01017142 257.65312013 199.0625 257.5625 C198.31162109 257.58570313 197.56074219 257.60890625 196.78710938 257.6328125 C193.68544776 257.60007729 191.41198241 257.49391039 188.87963867 255.60180664 C186.1225122 252.5298338 184.86219847 249.83276787 184.6875 245.75 C184.61595703 244.52603516 184.61595703 244.52603516 184.54296875 243.27734375 C184.49957994 240.78840385 184.48668842 238.30176529 184.5 235.8125 C185.16 235.4825 185.82 235.1525 186.5 234.8125 C184.9152642 230.94921373 182.44043113 228.52373077 179.4921875 225.609375 C179.00670441 225.1267218 178.52122131 224.6440686 178.02102661 224.14678955 C176.47700134 222.61391438 174.92615176 221.08815996 173.375 219.5625 C172.32375991 218.52129639 171.27297343 217.47963459 170.22265625 216.4375 C167.65366996 213.89050536 165.07851839 211.34984823 162.5 208.8125 C161.54738281 209.36679688 160.59476563 209.92109375 159.61328125 210.4921875 C158.34645443 211.22413189 157.07952173 211.95589305 155.8125 212.6875 C155.18666016 213.05230469 154.56082031 213.41710937 153.91601562 213.79296875 C145.20028409 218.8125 145.20028409 218.8125 140.5 218.8125 C140.685625 219.59625 140.87125 220.38 141.0625 221.1875 C141.5 223.8125 141.5 223.8125 140.5 225.8125 C139.84 225.8125 139.18 225.8125 138.5 225.8125 C138.21125 226.534375 137.9225 227.25625 137.625 228 C137.068125 229.3921875 137.068125 229.3921875 136.5 230.8125 C136.29375 231.59625 136.0875 232.38 135.875 233.1875 C134.05317068 236.66553778 131.49894904 238.61708891 128.47265625 241.06640625 C126.48487678 242.82588629 125.08342858 244.69522979 123.5 246.8125 C121.5625 247.5 121.5625 247.5 119.5 247.8125 C118.7575 247.998125 118.015 248.18375 117.25 248.375 C116.6725 248.519375 116.095 248.66375 115.5 248.8125 C115.5 249.4725 115.5 250.1325 115.5 250.8125 C112.18358498 251.80791875 109.16581207 251.94146826 105.7109375 251.9453125 C104.05191406 251.94724609 104.05191406 251.94724609 102.359375 251.94921875 C100.63460937 251.94341797 100.63460937 251.94341797 98.875 251.9375 C97.71742187 251.94136719 96.55984375 251.94523438 95.3671875 251.94921875 C94.26375 251.94792969 93.1603125 251.94664062 92.0234375 251.9453125 C91.01200684 251.94418457 90.00057617 251.94305664 88.95849609 251.94189453 C86.5 251.8125 86.5 251.8125 84.5 250.8125 C84.5 250.1525 84.5 249.4925 84.5 248.8125 C83.571875 248.503125 82.64375 248.19375 81.6875 247.875 C75.5 245.8125 75.5 245.8125 73.5 242.8125 C72.015 241.8225 72.015 241.8225 70.5 240.8125 C69.860625 240.008125 69.22125 239.20375 68.5625 238.375 C66.69415154 235.768794 66.69415154 235.768794 64.3125 234.4375 C61.58829107 231.99510579 61.89110274 229.33242464 61.5 225.8125 C60.84 225.4825 60.18 225.1525 59.5 224.8125 C59.42910156 224.04035156 59.35820313 223.26820313 59.28515625 222.47265625 C58.72492142 219.51562211 58.72492142 219.51562211 55.62109375 217.93359375 C54.40188183 217.35383792 53.17343339 216.7931972 51.9375 216.25 C50.72779667 215.68634364 49.51816183 215.12254028 48.30859375 214.55859375 C47.69741699 214.28128418 47.08624023 214.00397461 46.45654297 213.71826172 C43.09748139 212.16321824 39.80394625 210.48090158 36.5 208.8125 C33.67937758 211.57516748 30.86995786 214.34896053 28.0625 217.125 C27.26005859 217.91068359 26.45761719 218.69636719 25.63085938 219.50585938 C24.86708984 220.26318359 24.10332031 221.02050781 23.31640625 221.80078125 C22.25595093 222.84552612 22.25595093 222.84552612 21.17407227 223.91137695 C19.28519952 225.80752465 19.28519952 225.80752465 18.5 228.8125 C17.860625 229.121875 17.22125 229.43125 16.5625 229.75 C14.42174229 230.67887453 14.42174229 230.67887453 13.125 232.5 C12.35370764 235.35378173 13.13317245 237.00850011 14.03125 239.75 C14.94033255 243.74996323 14.7462289 247.91725187 13.5 251.8125 C11.50068397 254.52311115 9.92736544 256.42124061 6.59399414 257.33496094 C4.39094867 257.59538402 2.28046321 257.65836908 0.0625 257.625 C-1.07819946 257.61883667 -1.07819946 257.61883667 -2.24194336 257.61254883 C-5.83785143 257.44517934 -7.94328033 257.19846859 -10.9453125 255.1171875 C-13.38068188 251.92885368 -14.5 249.85992399 -14.5 245.8125 C-15.49 245.4825 -16.48 245.1525 -17.5 244.8125 C-17.5 244.1525 -17.5 243.4925 -17.5 242.8125 C-18.551875 242.44125 -18.551875 242.44125 -19.625 242.0625 C-23.07089814 240.56428342 -25.63150483 239.28074003 -28.5 236.8125 C-29.31880343 233.93466888 -29.20535924 231.21996835 -29.0625 228.25 C-29.05959961 227.09854492 -29.05959961 227.09854492 -29.05664062 225.92382812 C-28.92696953 220.41520771 -28.92696953 220.41520771 -27.15234375 217.91015625 C-26.60707031 217.54792969 -26.06179687 217.18570313 -25.5 216.8125 C-24.015 215.8225 -24.015 215.8225 -22.5 214.8125 C-17.59848236 213.74993324 -13.5681206 213.43232148 -8.8125 215.125 C-7.1728125 215.4653125 -7.1728125 215.4653125 -5.5 215.8125 C0.29470845 211.39097928 5.31924886 206.11276679 10.4375 200.9375 C11.21673828 200.15375 11.99597656 199.37 12.79882812 198.5625 C14.70154085 196.64811419 16.60186171 194.73141966 18.5 192.8125 C16.65487205 188.84405557 14.73479939 185.74238898 11.8125 182.5 C6.21971825 175.71023913 2.97811194 167.81619376 -0.5 159.8125 C-1.03882812 158.62011719 -1.57765625 157.42773438 -2.1328125 156.19921875 C-5.887424 146.89850968 -6.88749406 136.71308043 -7.875 126.796875 C-8.20033949 123.50622544 -8.20033949 123.50622544 -11.5 121.8125 C-12.53125 121.296875 -13.5625 120.78125 -14.625 120.25 C-17.70251018 117.64080659 -18.00533896 117.14366233 -18.5625 113.375 C-18.68382017 110.4244934 -18.46614892 108.71306246 -17.5 105.875 C-14.813675 103.10472734 -12.19492473 102.70201892 -8.5 101.8125 C-7.4978962 99.80829239 -6.83423392 97.87297243 -6.14453125 95.7421875 C-2.54408817 84.83400077 1.40319092 74.00186558 7.23828125 64.07421875 C8.55405677 61.71559948 9.54816543 59.3373194 10.5 56.8125 C8.12888231 54.26739625 5.72455365 51.75629202 3.3125 49.25 C2.63896484 48.52619141 1.96542969 47.80238281 1.27148438 47.05664062 C0.61083984 46.37666016 -0.04980469 45.69667969 -0.73046875 44.99609375 C-1.33270264 44.36243896 -1.93493652 43.72878418 -2.55541992 43.07592773 C-4.46643111 41.54480082 -4.46643111 41.54480082 -6.99731445 42.07055664 C-8.2361438 42.4378186 -8.2361438 42.4378186 -9.5 42.8125 C-15.54381307 43.90236793 -19.66317419 43.86050906 -25.5 41.8125 C-25.995 40.3275 -25.995 40.3275 -26.5 38.8125 C-27.16 38.4825 -27.82 38.1525 -28.5 37.8125 C-28.66225719 35.06013726 -28.7809328 32.31732524 -28.875 29.5625 C-28.92527344 28.78519531 -28.97554687 28.00789063 -29.02734375 27.20703125 C-29.08566442 24.93252529 -29.05692346 23.02081526 -28.5 20.8125 C-25.62680769 18.3097879 -23.22469168 17.08627241 -19.6875 15.75 C-18.965625 15.440625 -18.24375 15.13125 -17.5 14.8125 C-17.17 13.8225 -16.84 12.8325 -16.5 11.8125 C-15.84 11.8125 -15.18 11.8125 -14.5 11.8125 C-14.3659375 11.22984375 -14.231875 10.6471875 -14.09375 10.046875 C-11.93199099 1.91183453 -8.40736306 0.13125419 0 0 Z " fill="#0A0A0A" transform="translate(28.5,-0.8125)"/>
<path d="M0 0 C1.18709564 -0.00095673 2.37419128 -0.00191345 3.59725952 -0.00289917 C6.0965785 -0.00357594 8.5958993 -0.00175695 11.09521484 0.00244141 C14.86690345 0.00776797 18.63847143 0.00249395 22.41015625 -0.00390625 C39.52397825 -0.01026553 56.35131239 0.17665236 73.2734375 3.0078125 C74.83384766 3.24951172 74.83384766 3.24951172 76.42578125 3.49609375 C92.20330149 6.06267649 92.20330149 6.06267649 96.2734375 10.1328125 C98.07391736 30.83833093 91.66738771 50.9193156 78.83984375 67.2265625 C71.20973302 76.20498855 62.02602156 83.20901866 51.2734375 88.1328125 C50.6134375 88.1328125 49.9534375 88.1328125 49.2734375 88.1328125 C49.2734375 88.7928125 49.2734375 89.4528125 49.2734375 90.1328125 C51.2534375 90.6278125 51.2534375 90.6278125 53.2734375 91.1328125 C53.2734375 92.7828125 53.2734375 94.4328125 53.2734375 96.1328125 C54.2634375 96.1328125 55.2534375 96.1328125 56.2734375 96.1328125 C55.79404382 100.84685038 55.30509702 104.79860551 53.2734375 109.1328125 C54.7584375 109.6278125 54.7584375 109.6278125 56.2734375 110.1328125 C55.91723259 119.39414009 51.90052233 127.6944758 45.6484375 134.5078125 C36.94080475 142.55985128 27.12746498 145.46376747 15.59375 145.34765625 C5.56678144 144.6988524 -3.20448662 139.47710322 -10.0546875 132.28125 C-15.16125177 125.71907628 -18.40676154 118.44763744 -18.7265625 110.1328125 C-17.705625 111.1846875 -17.705625 111.1846875 -16.6640625 112.2578125 C-15.68848661 113.21980098 -14.70902034 114.17785348 -13.7265625 115.1328125 C-13.23027344 115.62523437 -12.73398438 116.11765625 -12.22265625 116.625 C-4.63808194 123.67956791 4.75357758 127.11394093 14.9609375 127.6953125 C16.0137793 127.76008789 16.0137793 127.76008789 17.08789062 127.82617188 C18.81618956 127.9319861 20.5447886 128.03287831 22.2734375 128.1328125 C22.2734375 127.4728125 22.2734375 126.8128125 22.2734375 126.1328125 C21.6134375 126.1328125 20.9534375 126.1328125 20.2734375 126.1328125 C20.2734375 121.1828125 20.2734375 116.2328125 20.2734375 111.1328125 C26.7084375 110.1428125 26.7084375 110.1428125 33.2734375 109.1328125 C28.9834375 109.1328125 24.6934375 109.1328125 20.2734375 109.1328125 C20.2734375 105.5028125 20.2734375 101.8728125 20.2734375 98.1328125 C25.2234375 97.6378125 25.2234375 97.6378125 30.2734375 97.1328125 C30.2734375 96.4728125 30.2734375 95.8128125 30.2734375 95.1328125 C29.0875 95.16761719 27.9015625 95.20242187 26.6796875 95.23828125 C2.5988198 95.73125963 -17.44996049 90.2210556 -35.57421875 73.375 C-50.08764182 58.25575346 -57.90709495 39.70626181 -58.2890625 18.8828125 C-58.31605225 17.96491943 -58.34304199 17.04702637 -58.37084961 16.10131836 C-58.36323608 14.80979858 -58.36323608 14.80979858 -58.35546875 13.4921875 C-58.35619385 12.72358398 -58.35691895 11.95498047 -58.35766602 11.16308594 C-57.7265625 9.1328125 -57.7265625 9.1328125 -55.59008789 7.44482422 C-52.45000894 6.00610103 -49.6865651 5.35166358 -46.28125 4.78125 C-45.03859375 4.56984375 -43.7959375 4.3584375 -42.515625 4.140625 C-41.22398438 3.93179688 -39.93234375 3.72296875 -38.6015625 3.5078125 C-36.69890625 3.18296875 -36.69890625 3.18296875 -34.7578125 2.8515625 C-23.11660508 0.90736085 -11.79950652 -0.02142477 0 0 Z " fill="#F9F9F9" transform="translate(109.7265625,101.8671875)"/>
<path d="M0 0 C1.22378336 1.00225966 2.43129206 2.02460236 3.625 3.0625 C4.43324219 3.72894531 5.24148437 4.39539063 6.07421875 5.08203125 C14.35849618 12.15276729 20.19164557 20.13178609 24.625 30.0625 C24.625 30.7225 24.625 31.3825 24.625 32.0625 C23.56925781 31.80855469 22.51351562 31.55460937 21.42578125 31.29296875 C0.42945456 26.35412711 -19.8159794 24.54067486 -41.39257812 24.61645508 C-44.12043053 24.6256103 -46.8474239 24.61877894 -49.57519531 24.59594727 C-72.37045548 24.40644815 -94.27448687 26.21713791 -116.375 32.0625 C-109.4481015 14.70719386 -96.17688528 0.46216351 -79.1484375 -7.43359375 C-75.92097125 -8.73151276 -72.68426234 -9.8668563 -69.375 -10.9375 C-68.4675 -11.2571875 -67.56 -11.576875 -66.625 -11.90625 C-44.31936277 -18.75002506 -18.66897001 -13.42066518 0 0 Z " fill="#FB9600" transform="translate(174.375,54.9375)"/>
<path d="M0 0 C2.41414825 1.93378202 4.70992863 3.91811694 7 6 C5.37938967 9.99432781 2.60660827 12.79558321 -0.375 15.8125 C-1.09816406 16.5849707 -1.09816406 16.5849707 -1.8359375 17.37304688 C-5.401681 20.99208274 -5.401681 20.99208274 -8.06640625 21.02734375 C-10.40887451 19.78275961 -12.44713493 18.35307732 -14.5625 16.75 C-19.76287303 13.00695864 -25.11488398 10.47504879 -31 8 C-32.093125 7.46375 -33.18625 6.9275 -34.3125 6.375 C-53.97939694 -0.9584192 -74.75874875 0.74147927 -94 8.6171875 C-101.64999772 12.14335833 -108.40020405 16.80127805 -115 22 C-119.32504836 20.34136495 -122.09418825 17.128959 -125.25 13.875 C-125.80429688 13.31167969 -126.35859375 12.74835937 -126.9296875 12.16796875 C-128.29104485 10.78313972 -129.64614859 9.39216796 -131 8 C-128.60611227 0.81833681 -118.39564897 -3.95553361 -111.89331055 -7.28540039 C-109.18631974 -8.62158604 -106.46198583 -9.91637012 -103.72412109 -11.18798828 C-102.33776345 -11.84092308 -100.97170343 -12.53686842 -99.61328125 -13.24609375 C-68.07992126 -29.16765273 -27.16088342 -20.12670253 0 0 Z " fill="#57AEE6" transform="translate(190,36)"/>
<path d="M0 0 C0.65822187 -0.00482328 1.31644375 -0.00964657 1.99461174 -0.01461601 C6.9964005 -0.05073854 11.99809387 -0.06653841 17 -0.07421875 C17.73460072 -0.07566391 18.46920143 -0.07710907 19.22606277 -0.07859802 C38.35814201 -0.1090301 57.3772288 0.13519933 76.4375 1.98828125 C77.26886475 2.06678314 78.10022949 2.14528503 78.95678711 2.22616577 C122.94647865 6.52146481 122.94647865 6.52146481 134 16.23828125 C134.7421875 18.90234375 134.7421875 18.90234375 135 21.23828125 C127.14031346 28.82694411 112.66004552 32.23828125 102 32.23828125 C101.94392578 30.88283203 101.94392578 30.88283203 101.88671875 29.5 C101.82097656 28.32050781 101.75523437 27.14101562 101.6875 25.92578125 C101.60048828 24.16814453 101.60048828 24.16814453 101.51171875 22.375 C101.24485826 19.31246308 101.24485826 19.31246308 99.74609375 17.4453125 C89.1627297 10.12929574 73.33851387 10.36004771 61 9.23828125 C59.94458008 9.14039307 58.88916016 9.04250488 57.80175781 8.94165039 C46.19880322 8.01602328 34.58385094 8.05218096 22.95068359 8.05297852 C19.40319696 8.05079858 15.85602543 8.03260134 12.30859375 8.01367188 C-22.9971094 6.98468445 -22.9971094 6.98468445 -56 17.23828125 C-58.77042109 20.00870234 -58.39796106 22.0036193 -58.625 25.86328125 C-58.69976562 27.05179688 -58.77453125 28.2403125 -58.8515625 29.46484375 C-58.90054688 30.38007812 -58.94953125 31.2953125 -59 32.23828125 C-70.91342996 31.92326267 -83.35412377 28.27173267 -93 21.23828125 C-92.6967918 18.24662699 -92.48726317 16.68673585 -90.234375 14.61328125 C-71.41579508 4.19796658 -48.14198628 3.47808263 -27.14300537 1.44767761 C-25.61019492 1.29790434 -24.07823915 1.13927871 -22.54693604 0.97480774 C-15.02691228 0.21071842 -7.55542102 0.04572626 0 0 Z " fill="#F79400" transform="translate(107,91.76171875)"/>
<path d="M0 0 C1.95842109 0.92904226 3.62459698 1.94907381 5.37109375 3.2265625 C6.23734375 3.7628125 7.10359375 4.2990625 7.99609375 4.8515625 C13.86227598 10.71774473 16.75556617 16.06970937 16.87109375 24.4765625 C16.63797086 33.06325557 14.05052352 38.9233052 8.37109375 45.2265625 C1.79933401 51.08945827 -4.78812511 52.78183608 -13.53125 52.59765625 C-21.56470957 51.63526198 -27.08179512 47.45860947 -32.15625 41.38671875 C-37.14675019 34.06643597 -37.36849282 27.89897483 -36.62890625 19.2265625 C-35.9796179 16.36768044 -35.16635205 14.82431574 -33.62890625 12.2265625 C-33.15324219 11.35644531 -33.15324219 11.35644531 -32.66796875 10.46875 C-25.65531758 -1.02006149 -12.34955103 -3.6333003 0 0 Z " fill="#030303" transform="translate(103.62890625,113.7734375)"/>
<path d="M0 0 C0.515625 0.36738281 1.03125 0.73476562 1.5625 1.11328125 C2.42875 1.62890625 3.295 2.14453125 4.1875 2.67578125 C9.77825616 8.41366257 12.93239849 14.67896319 13.1875 22.73828125 C12.80172865 30.30119398 10.43301313 37.04597614 5.2109375 42.6953125 C-1.84885926 48.76807606 -8.77057306 51.13909611 -18.0703125 50.69140625 C-26.30212502 49.27805561 -31.78905064 44.33946332 -37.0625 38.140625 C-41.76308368 31.20993485 -41.19639181 23.12907604 -40.4375 15.11328125 C-37.9963432 7.2013177 -32.23364713 2.48587321 -25.4375 -1.76171875 C-17.7045694 -4.69006208 -7.05356506 -4.42367981 0 0 Z " fill="#030303" transform="translate(177.4375,115.88671875)"/>
<path d="M0 0 C3.23861303 1.44424635 5.61969163 3.25772247 8.25 5.625 C8.95640625 6.25664062 9.6628125 6.88828125 10.390625 7.5390625 C11.18726562 8.26222656 11.18726562 8.26222656 12 9 C10.49315032 12.53239023 8.44633388 14.7962166 5.73388672 17.49316406 C4.41274368 18.81408051 4.41274368 18.81408051 3.06491089 20.16168213 C2.10327649 21.11310431 1.1415328 22.06441603 0.1796875 23.015625 C-0.80438107 23.99596129 -1.78800742 24.97674168 -2.77120972 25.95794678 C-5.35442714 28.53354467 -7.94359512 31.10307857 -10.53405762 33.67138672 C-13.1786762 36.29551067 -15.8176101 38.92533771 -18.45703125 41.5546875 C-23.63248072 46.7087167 -28.81423122 51.85635157 -34 57 C-32.79618552 59.49361571 -31.54571278 61.68143083 -30 64 C-29.56339616 67.30571478 -29.28957272 69.81419387 -31.05078125 72.75390625 C-33.93878111 76.28936331 -35.67987643 77.81880657 -40.1875 78.4375 C-44.61322842 77.92962953 -46.43196876 76.84941176 -49.62109375 73.8671875 C-51.96953503 70.6871452 -51.93290406 67.89156472 -52 64 C-53.03125 63.938125 -54.0625 63.87625 -55.125 63.8125 C-59.95205627 62.8003753 -61.55387071 61.44612929 -65 58 C-66.21260877 54.36217368 -66.39544552 51.82264001 -66 48 C-63.5625 45.125 -63.5625 45.125 -61 43 C-60.505 42.505 -60.505 42.505 -60 42 C-54.7878189 41.59906299 -52.37348049 42.35289339 -48 45 C-43.61970325 44.69712871 -41.6303148 43.12462812 -38.59277344 40.06274414 C-37.33687408 38.81123314 -37.33687408 38.81123314 -36.05560303 37.53443909 C-35.16584778 36.62717575 -34.27609253 35.71991241 -33.359375 34.78515625 C-32.43658752 33.85908066 -31.51380005 32.93300507 -30.56304932 31.97886658 C-28.61371098 30.02190032 -26.67100622 28.05866847 -24.73339844 26.09008789 C-22.24800241 23.56503563 -19.75188133 21.05094714 -17.25143051 18.54081059 C-14.86719154 16.1466072 -12.48813209 13.7473073 -10.109375 11.34765625 C-9.21152283 10.44241714 -8.31367065 9.53717804 -7.38861084 8.60450745 C-6.56395325 7.76701462 -5.73929565 6.92952179 -4.88964844 6.06665039 C-4.16082458 5.32798233 -3.43200073 4.58931427 -2.68109131 3.82826233 C-0.93287164 2.09591017 -0.93287164 2.09591017 0 0 Z " fill="#FBFBFB" transform="translate(69,175)"/>
<path d="M0 0 C3.48972003 1.49530324 5.73465395 3.49191662 8.40136719 6.17431641 C9.2619574 7.03505768 10.12254761 7.89579895 11.00921631 8.78262329 C11.92914368 9.71287323 12.84907104 10.64312317 13.796875 11.6015625 C14.75479097 12.56321086 15.71315114 13.52441694 16.67193604 14.48519897 C19.18835125 17.00923282 21.69870107 19.53921591 24.20782471 22.07049561 C26.77162441 24.6547919 29.34112918 27.23340199 31.91015625 29.8125 C36.94569457 34.86945697 41.9748456 39.93272256 47 45 C49.49361571 43.79618552 51.68143083 42.54571278 54 41 C57.44599539 40.46984686 59.88048765 40.40872357 63.01171875 42.0625 C65.66168221 44.04056603 67.580473 45.74900082 68.6484375 48.93359375 C68.98142874 53.00084387 67.91794588 55.68692812 65.5 58.9375 C63.01657808 61.55162833 61.19683605 62.47989823 57.625 62.9375 C55.830625 62.9684375 55.830625 62.9684375 54 63 C53.9071875 64.546875 53.9071875 64.546875 53.8125 66.125 C52.8003753 70.95205627 51.44612929 72.55387071 48 76 C44.36217368 77.21260877 41.82264001 77.39544552 38 77 C35.36983839 74.8272578 33.52663106 73.05326212 32 70 C31.62680824 64.96191129 31.99444454 62.92028973 35 59 C34.70953896 54.50813815 32.98377519 52.49393159 29.84741211 49.39331055 C28.96657455 48.51277512 28.085737 47.63223969 27.1782074 46.72502136 C26.21146514 45.77870357 25.24450546 44.83260784 24.27734375 43.88671875 C23.29141125 42.90825078 22.30636131 41.92889278 21.32215881 40.94868469 C18.73505235 38.37681776 16.13615875 35.81719163 13.53460693 33.25994873 C10.87976463 30.64609532 8.23627299 28.02081762 5.59179688 25.39648438 C0.40555957 20.25308824 -4.79318599 15.12257357 -10 10 C-6.66666667 6.66666667 -3.33333333 3.33333333 0 0 Z " fill="#FBFBFB" transform="translate(185,176)"/>
<path d="M0 0 C2.89282077 1.56974771 5.02826545 3.36135524 7 6 C7.89999651 10.58180039 7.34795692 12.40194904 5 16.4375 C4.34 17.283125 3.68 18.12875 3 19 C4.3761536 22.09179136 5.95158445 24.19638753 8.34814453 26.57519531 C9.02869904 27.25559875 9.70925354 27.9360022 10.41043091 28.63702393 C11.14381683 29.36008728 11.87720276 30.08315063 12.6328125 30.828125 C13.38464813 31.57713074 14.13648376 32.32613647 14.91110229 33.09783936 C17.31107901 35.4866302 19.71792009 37.86836897 22.125 40.25 C23.75436352 41.86933169 25.38327534 43.48911802 27.01171875 45.109375 C31.00258806 49.07820505 34.99911415 53.04126899 39 57 C37.53612288 60.01613927 35.91771103 62.58559431 33.875 65.25 C33.33617187 65.95640625 32.79734375 66.6628125 32.2421875 67.390625 C31.83226562 67.92171875 31.42234375 68.4528125 31 69 C27.90269849 67.62695576 25.84808735 66.07100054 23.50415039 63.63598633 C22.50775291 62.61031303 22.50775291 62.61031303 21.4912262 61.56391907 C20.43015907 60.4591346 20.43015907 60.4591346 19.34765625 59.33203125 C17.83457262 57.78393005 16.32088225 56.23642168 14.80664062 54.68945312 C12.42561499 52.24635875 10.0495254 49.79901936 7.68383789 47.34106445 C5.3976337 44.97044074 3.09315776 42.61891156 0.78515625 40.26953125 C0.0798024 39.52693558 -0.62555145 38.7843399 -1.35227966 38.01924133 C-2.01969681 37.34491562 -2.68711395 36.6705899 -3.37475586 35.97583008 C-3.95559433 35.37563553 -4.5364328 34.77544098 -5.13487244 34.15705872 C-7.00704403 32.73515103 -7.00704403 32.73515103 -9.60939026 33.24760437 C-11.97920743 33.9018994 -11.97920743 33.9018994 -13.875 35.0625 C-17.11364519 36.49131406 -19.5051711 36.42918951 -23 36 C-26.84554163 32.82324822 -28.80224739 30.71385593 -29.375 25.75 C-28.87794743 20.77947435 -27.48839777 19.48839777 -24 16 C-20.5647952 13.70986347 -19.014669 13.82157027 -15 14 C-15.12375 13.154375 -15.2475 12.30875 -15.375 11.4375 C-14.85410732 6.66265043 -12.42773923 4.2234957 -9 1 C-5.79745853 -0.60127074 -3.54685436 -0.40701607 0 0 Z " fill="#FBFBFB" transform="translate(32,3)"/>
<path d="M0 0 C5.20439199 0.34695947 7.43626053 1.93626053 11.0625 5.5625 C13.05049843 8.72857157 13.09145336 10.57937634 12.75 14.25 C13.94625 14.270625 15.1425 14.29125 16.375 14.3125 C19.97948854 14.76787133 21.76708723 15.71982773 24.25 18.375 C26.2543107 21.06022721 26.78112393 22.41127854 27.4375 25.8125 C26.53113488 30.34432561 24.99804664 32.00195336 21.75 35.25 C18.64951072 36.80024464 16.17105782 36.53992015 12.75 36.25 C9.8125 34.25 9.8125 34.25 7.75 32.25 C4.65820864 33.6261536 2.55361247 35.20158445 0.17480469 37.59814453 C-0.50559875 38.27869904 -1.1860022 38.95925354 -1.88702393 39.66043091 C-2.61008728 40.39381683 -3.33315063 41.12720276 -4.078125 41.8828125 C-4.82713074 42.63464813 -5.57613647 43.38648376 -6.34783936 44.16110229 C-8.7366302 46.56107901 -11.11836897 48.96792009 -13.5 51.375 C-15.11933169 53.00436352 -16.73911802 54.63327534 -18.359375 56.26171875 C-22.32820505 60.25258806 -26.29126899 64.24911415 -30.25 68.25 C-33.61042312 67.12985896 -34.66746812 66.03509232 -37 63.4375 C-37.63421875 62.75042969 -38.2684375 62.06335938 -38.921875 61.35546875 C-40.25 59.25 -40.25 59.25 -40.03042603 57.3311615 C-39.10281348 54.85749781 -37.99540533 53.6697362 -36.09130859 51.84594727 C-35.42747162 51.20170303 -34.76363464 50.5574588 -34.0796814 49.89369202 C-32.99996567 48.86543556 -32.99996567 48.86543556 -31.8984375 47.81640625 C-30.39282595 46.34872081 -28.88763014 44.8806088 -27.3828125 43.41210938 C-25.00040932 41.10431018 -22.61354974 38.80152722 -20.21875 36.5065918 C-17.9113806 34.2895912 -15.62282052 32.05450524 -13.3359375 29.81640625 C-12.25014908 28.79118614 -12.25014908 28.79118614 -11.14242554 27.74525452 C-10.15612656 26.77415993 -10.15612656 26.77415993 -9.14990234 25.78344727 C-8.56445648 25.22037369 -7.97901062 24.65730011 -7.37582397 24.0771637 C-5.98679131 22.23485138 -5.98679131 22.23485138 -6.50234985 19.64634705 C-7.1507129 17.2711133 -7.1507129 17.2711133 -8.3125 15.375 C-9.74131406 12.13635481 -9.67918951 9.7448289 -9.25 6.25 C-6.8125 3.375 -6.8125 3.375 -4.25 1.25 C-3.25 0.25 -3.25 0.25 0 0 Z " fill="#FAFAFA" transform="translate(226.25,2.75)"/>
<path d="M0 0 C11.385 2.475 11.385 2.475 23 5 C23.4125 7.0625 23.825 9.125 24.25 11.25 C26.79898632 22.89582741 30.20559518 32.05118076 36.87890625 41.87109375 C38.67590687 44.52191787 40.35232144 47.25386906 42 50 C37.05 54.95 32.1 59.9 27 65 C19.19793013 62.39931004 13.38897741 49.45381569 9.75 42.375 C3.08537985 28.79000679 -0.98994253 15.17911884 0 0 Z " fill="#3D7FBE" transform="translate(26,123)"/>
<path d="M0 0 C1.19833133 22.36885141 -8.39838344 43.71336398 -22 61 C-23.65 62.65 -25.3 64.3 -27 66 C-31.95 61.05 -36.9 56.1 -42 51 C-40.28177175 47.5635435 -38.468847 44.79646585 -36.25 41.6875 C-28.64846461 30.31968664 -25.16420556 18.38390279 -23 5 C-19.73061914 4.16089611 -16.45927466 3.32971667 -13.1875 2.5 C-11.7943457 2.14228516 -11.7943457 2.14228516 -10.37304688 1.77734375 C-9.48037109 1.55175781 -8.58769531 1.32617188 -7.66796875 1.09375 C-6.84578857 0.88427734 -6.0236084 0.67480469 -5.17651367 0.45898438 C-3 0 -3 0 0 0 Z " fill="#3D7FBE" transform="translate(231,123)"/>
<path d="M0 0 C0.680625 0.70125 1.36125 1.4025 2.0625 2.125 C3.03807589 3.08698848 4.01754216 4.04504098 5 5 C5.49628906 5.49242187 5.99257812 5.98484375 6.50390625 6.4921875 C16.94611 16.20469509 28.77166253 17.54122138 42.375 17.34375 C52.58878398 16.93574265 61.52981587 13.04634389 69 6 C70.76460984 4.05848691 72.37745096 2.06506242 74 0 C74.33 0 74.66 0 75 0 C74.64379509 9.26132759 70.62708483 17.5616633 64.375 24.375 C55.66736725 32.42703878 45.85402748 35.33095497 34.3203125 35.21484375 C24.29334394 34.5660399 15.52207588 29.34429072 8.671875 22.1484375 C3.56531073 15.58626378 0.31980096 8.31482494 0 0 Z " fill="#F8F8F8" transform="translate(91,212)"/>
<path d="M0 0 C1.33106622 0.34227417 2.66400079 0.67751743 4 1 C4 2.65 4 4.3 4 6 C4.99 6 5.98 6 7 6 C6.2481203 13.39348371 6.2481203 13.39348371 4.875 16.75 C3.75581817 18.93106169 3.75581817 18.93106169 4.61328125 20.9296875 C5 23 5 23 3.98828125 24.7109375 C-3.17756602 31.82667395 -13.61744376 37.79411109 -23.875 38.125 C-24.90625 38.08375 -25.9375 38.0425 -27 38 C-27 37.34 -27 36.68 -27 36 C-27.66 36 -28.32 36 -29 36 C-29 31.05 -29 26.1 -29 21 C-24.71 20.34 -20.42 19.68 -16 19 C-20.29 19 -24.58 19 -29 19 C-29 15.37 -29 11.74 -29 8 C-25.7 7.67 -22.4 7.34 -19 7 C-19 6.34 -19 5.68 -19 5 C-19.99 4.67 -20.98 4.34 -22 4 C-20.96359375 3.80664062 -19.9271875 3.61328125 -18.859375 3.4140625 C-17.48952391 3.15135133 -16.11973548 2.88831329 -14.75 2.625 C-14.06808594 2.49867188 -13.38617188 2.37234375 -12.68359375 2.2421875 C-9.83992618 1.69001904 -7.29772358 1.15088712 -4.703125 -0.1640625 C-3 -1 -3 -1 0 0 Z " fill="#1D1D1D" transform="translate(159,192)"/>
<path d="M0 0 C1.2479837 0.00090637 1.2479837 0.00090637 2.5211792 0.00183105 C20.77624233 0.03765185 38.89892233 0.61761881 56.875 4.0625 C58.04409912 4.28631348 58.04409912 4.28631348 59.23681641 4.51464844 C64.69499387 5.68042646 69.94122608 7.41962275 74.8125 10.1875 C75.1425 10.8475 75.4725 11.5075 75.8125 12.1875 C74.20375 12.00574219 74.20375 12.00574219 72.5625 11.8203125 C25.41263171 6.6842063 -23.14051984 5.47473935 -70.1875 12.1875 C-69.1875 9.1875 -69.1875 9.1875 -67.15380859 8.09643555 C-59.77839627 5.46790011 -52.56108114 4.04105087 -44.8125 3 C-43.11867188 2.7534668 -43.11867188 2.7534668 -41.390625 2.50195312 C-27.57778782 0.55013918 -13.92567289 -0.01871963 0 0 Z " fill="#A50B00" transform="translate(126.1875,80.8125)"/>
<path d="M0 0 C14.47791165 4.21686747 14.47791165 4.21686747 17 8 C17.33 7.67 17.66 7.34 18 7 C20.53798696 7.09095676 23.03326771 7.23715174 25.5625 7.4375 C29.2440625 7.7159375 29.2440625 7.7159375 33 8 C33 16.91 33 25.82 33 35 C27.39018823 35 24.67822164 34.86255747 19.6875 33.125 C18.14642578 32.60292969 18.14642578 32.60292969 16.57421875 32.0703125 C14 31 14 31 12 29 C11.375 26.875 11.375 26.875 11 25 C10.67 25.66 10.34 26.32 10 27 C4.19464722 24.53712306 1.02126518 19.41389952 -1.375 13.75 C-2 11 -2 11 -2 7 C-1.34 7 -0.68 7 0 7 C0.804375 7.969375 1.60875 8.93875 2.4375 9.9375 C4.70684377 13.19375327 4.70684377 13.19375327 8 14 C7.50628906 13.49210938 7.01257813 12.98421875 6.50390625 12.4609375 C0.14059754 5.62390158 0.14059754 5.62390158 0 0 Z " fill="#272727" transform="translate(93,192)"/>
<path d="M0 0 C9.61712367 4.80856183 12.82108174 18.30917152 16.25 27.875 C16.65593384 29.00023071 16.65593384 29.00023071 17.07006836 30.14819336 C18.14832922 33.21559373 19 35.72418134 19 39 C-3.01942247 36.7882822 -3.01942247 36.7882822 -7.74072266 32.37158203 C-10.36740884 28.23187265 -11.16504965 23.77114487 -12 19 C-12.66 17.35 -13.32 15.7 -14 14 C-9.38 9.38 -4.76 4.76 0 0 Z " fill="#4D9CD6" transform="translate(211,60)"/>
<path d="M0 0 C2.93230193 1.32120828 4.98664899 2.74638197 7.234375 5.0390625 C7.80800781 5.61914062 8.38164063 6.19921875 8.97265625 6.796875 C9.55917969 7.40015625 10.14570312 8.0034375 10.75 8.625 C11.35199219 9.23601562 11.95398438 9.84703125 12.57421875 10.4765625 C14.05405305 11.97988624 15.52764676 13.48934856 17 15 C16.71769531 15.67675781 16.43539062 16.35351562 16.14453125 17.05078125 C14.93316546 20.06014077 14.93316546 20.06014077 13.94921875 23.48046875 C12.58406284 27.49140671 11.38432426 30.49495403 9 34 C4.70860118 35.90279004 0.64328128 35.88312107 -4 36 C-6.11075875 36.33591647 -8.2162684 36.70792033 -10.3125 37.125 C-11.66794922 37.37636719 -11.66794922 37.37636719 -13.05078125 37.6328125 C-13.69402344 37.75398438 -14.33726563 37.87515625 -15 38 C-14.15823753 23.9706255 -7.09322314 11.77307155 0 0 Z " fill="#4E9DD7" transform="translate(43,60)"/>
<path d="M0 0 C1.12564362 -0.0033284 2.25128723 -0.0066568 3.41104126 -0.01008606 C5.77906898 -0.01511144 8.14710367 -0.01749576 10.51513672 -0.01733398 C14.05839341 -0.0195048 17.60133002 -0.03766535 21.14453125 -0.05664062 C34.95319548 -0.09029254 48.54824772 0.48741944 62.28338623 1.91836548 C65.44483674 2.24135011 68.60956028 2.51871939 71.77571106 2.79119873 C80.1522924 3.57865972 88.15157668 5.41940748 95.7265625 9.16796875 C98.14786581 12.79992371 97.93679035 14.55146223 97.8515625 18.85546875 C97.83351562 20.03496094 97.81546875 21.21445313 97.796875 22.4296875 C97.77367187 23.33332031 97.75046875 24.23695312 97.7265625 25.16796875 C98.3865625 25.49796875 99.0465625 25.82796875 99.7265625 26.16796875 C98.7365625 26.16796875 97.7465625 26.16796875 96.7265625 26.16796875 C94.59150062 22.44855539 94.48934471 19.50043141 94.4609375 15.2890625 C93.8766395 12.92819944 93.8766395 12.92819944 91.36328125 11.5234375 C86.5764134 9.73928804 81.81677037 8.8803618 76.7890625 8.04296875 C75.82548828 7.87410156 74.86191406 7.70523438 73.86914062 7.53125 C55.2103004 4.29177945 36.73408348 3.95797629 17.83666992 3.92773438 C14.19491534 3.91805079 10.55373195 3.88693198 6.91210938 3.85546875 C-11.34264346 3.77326449 -28.96636913 5.31813118 -46.89064026 8.77484131 C-49.71058549 9.24009191 -52.42126214 9.32214039 -55.2734375 9.16796875 C-54.9434375 8.17796875 -54.6134375 7.18796875 -54.2734375 6.16796875 C-48.59613972 4.03324358 -42.63736661 3.38825409 -36.6484375 2.60546875 C-35.28525391 2.41694336 -35.28525391 2.41694336 -33.89453125 2.22460938 C-22.61554218 0.71388924 -11.3764757 0.01215048 0 0 Z " fill="#140F08" transform="translate(111.2734375,98.83203125)"/>
<path d="M0 0 C0 0.33 0 0.66 0 1 C-1.98 1.33 -3.96 1.66 -6 2 C-4.35 2.33 -2.7 2.66 -1 3 C-1 3.33 -1 3.66 -1 4 C-3.54174007 3.85537314 -6.08338518 3.70930017 -8.625 3.5625 C-9.31851563 3.52318359 -10.01203125 3.48386719 -10.7265625 3.44335938 C-14.16431834 3.24384676 -17.59807963 3.03232409 -21.0307312 2.7562561 C-29.70958045 2.06786292 -38.3272884 1.83946829 -47.03125 1.83203125 C-48.43827342 1.82880088 -49.84529654 1.82543564 -51.25231934 1.82194519 C-54.18352025 1.81601151 -57.11469196 1.81409913 -60.04589844 1.81469727 C-63.00103924 1.81477822 -65.95602399 1.80787582 -68.91113281 1.79418945 C-84.54152254 1.72277183 -100.02733844 1.81491031 -115.58398438 3.5690918 C-119.74679075 4.0284591 -123.81387344 4.07577919 -128 4 C-128 2.68 -128 1.36 -128 0 C-86.23685869 -5.7443726 -41.80261581 -4.96797683 0 0 Z " fill="#150700" transform="translate(191,91)"/>
<path d="M0 0 C2.73329846 0.01610467 5.4662597 0.00587418 8.19956875 -0.00372696 C54.99670778 -0.13497741 54.99670778 -0.13497741 72.16571045 8.44952393 C72.16571045 9.43952393 72.16571045 10.42952393 72.16571045 11.44952393 C71.55727295 11.26776611 70.94883545 11.0860083 70.32196045 10.89874268 C28.0958685 -1.21021016 -26.74549212 -1.57796099 -68.83428955 11.44952393 C-69.16428955 10.45952393 -69.49428955 9.46952393 -69.83428955 8.44952393 C-46.98666923 0.89694657 -23.88312932 -0.19990379 0 0 Z " fill="#110500" transform="translate(126.83428955078125,78.55047607421875)"/>
<path d="M0 0 C1.98 0.99 3.96 1.98 6 3 C5.690625 4.19625 5.38125 5.3925 5.0625 6.625 C3.62245192 13.00819185 3.35230768 19.48230791 3 26 C-1.6182583 25.45207105 -4.98149647 23.41035512 -8.8125 20.9375 C-9.40998047 20.56044922 -10.00746094 20.18339844 -10.62304688 19.79492188 C-12.08636577 18.87010434 -13.54379523 17.93597935 -15 17 C-13.67879172 14.06769807 -12.25361803 12.01335101 -9.9609375 9.765625 C-9.38085938 9.19199219 -8.80078125 8.61835938 -8.203125 8.02734375 C-7.59984375 7.44082031 -6.9965625 6.85429687 -6.375 6.25 C-5.76398438 5.64800781 -5.15296875 5.04601562 -4.5234375 4.42578125 C-3.02011376 2.94594695 -1.51065144 1.47235324 0 0 Z " fill="#346EAD" transform="translate(84,187)"/>
<path d="M0 0 C5.54361702 3.28510638 5.54361702 3.28510638 6.515625 6.9375 C6.70634902 10.5340101 6.14991986 12.70640695 4.5 15.9375 C1.58478071 18.34255592 -0.31407344 18.94740633 -4.03125 19.2109375 C-7.22582498 18.86866161 -8.85616798 17.27376123 -11 15 C-12.62220646 11.75558709 -12.70159132 8.49459297 -12 5 C-8.37923712 0.86198528 -5.52333149 -1.15069406 0 0 Z " fill="#070707" transform="translate(131,161)"/>
<path d="M0 0 C2.30956919 0.92724221 3.51977759 1.96912091 5.24902344 3.75024414 C6.10947266 4.62519531 6.10947266 4.62519531 6.98730469 5.51782227 C7.57382813 6.12948242 8.16035156 6.74114258 8.76464844 7.37133789 C9.36664063 7.98686523 9.96863281 8.60239258 10.58886719 9.23657227 C12.07099225 10.75398602 13.54374514 12.28054385 15.01464844 13.80883789 C13.62435707 17.979712 10.73621125 18.99092487 7.07714844 20.99633789 C6.43068359 21.36436523 5.78421875 21.73239258 5.11816406 22.11157227 C0.2991162 24.80883789 0.2991162 24.80883789 -1.98535156 24.80883789 C-2.05882812 23.57520508 -2.05882812 23.57520508 -2.13378906 22.31665039 C-2.60154596 15.33255605 -3.39974384 8.62849054 -4.98535156 1.80883789 C-1.98535156 -0.19116211 -1.98535156 -0.19116211 0 0 Z " fill="#346FAF" transform="translate(171.9853515625,188.191162109375)"/>
<path d="M0 0 C6.27 0.66 12.54 1.32 19 2 C19 6.62 19 11.24 19 16 C13.39018823 16 10.67822164 15.86255747 5.6875 14.125 C4.66011719 13.77695313 3.63273437 13.42890625 2.57421875 13.0703125 C0 12 0 12 -2 10 C-1.62582359 6.55757704 -0.84065263 3.36261052 0 0 Z " fill="#F5F5F5" transform="translate(107,211)"/>
<path d="M0 0 C1.19287411 3.87684087 2 6.91621923 2 11 C-4.92961535 14.90901379 -11.11002458 16 -19 16 C-19 11.38 -19 6.76 -19 2 C-16.58374679 1.66340751 -14.16707192 1.33061612 -11.75 1 C-10.72712891 0.85691406 -10.72712891 0.85691406 -9.68359375 0.7109375 C-6.40628012 0.2654774 -3.31615847 0 0 0 Z " fill="#F5F5F5" transform="translate(149,211)"/>
<path d="M0 0 C7.26 0 14.52 0 22 0 C22 0.66 22 1.32 22 2 C18.78548731 3.60725635 15.56387464 3.05748185 12 3 C12 6.63 12 10.26 12 14 C16.62 13.67 21.24 13.34 26 13 C25.67 13.66 25.34 14.32 25 15 C21.98509443 16.00496852 19.95818308 16.10335303 16.8125 16.0625 C15.224375 16.041875 13.63625 16.02125 12 16 C12 20.95 12 25.9 12 31 C12.66 31 13.32 31 14 31 C14 31.66 14 32.32 14 33 C11.58303128 33.05411124 9.16728213 33.09372278 6.75 33.125 C6.06808594 33.14175781 5.38617188 33.15851563 4.68359375 33.17578125 C0.9391765 33.21213482 -1.82352727 33.07944349 -5 31 C-4.67 30.34 -4.34 29.68 -4 29 C-0.04 29.33 3.92 29.66 8 30 C8 25.38 8 20.76 8 16 C6.68 15.67 5.36 15.34 4 15 C5.32 15 6.64 15 8 15 C8 10.71 8 6.42 8 2 C5.36 2 2.72 2 0 2 C0 1.34 0 0.68 0 0 Z " fill="#171717" transform="translate(118,197)"/>
<path d="M0 0 C0 0.33 0 0.66 0 1 C14.85 1.495 14.85 1.495 30 2 C30 2.33 30 2.66 30 3 C29.45194702 3.00586624 28.90389404 3.01173248 28.3392334 3.01777649 C-11.31963366 3.4556206 -11.31963366 3.4556206 -50.57421875 8.60522461 C-53.40942171 9.06662992 -56.13303336 9.15497117 -59 9 C-58.67 8.01 -58.34 7.02 -58 6 C-52.32393957 3.86574008 -46.36339091 3.21620641 -40.375 2.4375 C-39.39515137 2.30819092 -38.41530273 2.17888184 -37.40576172 2.0456543 C-24.88280636 0.42721712 -12.61003729 -0.14568721 0 0 Z " fill="#1B140B" transform="translate(115,99)"/>
<path d="M0 0 C0.66 2.97 1.32 5.94 2 9 C-4.04564605 11.63810009 -8.40962648 12.30892376 -15 12 C-15 8.37 -15 4.74 -15 1 C-9.92928099 0.28832014 -5.11791642 -0.10662326 0 0 Z " fill="#F6F6F6" transform="translate(145,199)"/>
<path d="M0 0 C4.95 0.33 9.9 0.66 15 1 C15 4.63 15 8.26 15 12 C8.66606918 12.34548714 3.89738492 11.29342747 -2 9 C-1.125 2.25 -1.125 2.25 0 0 Z " fill="#F7F7F7" transform="translate(111,199)"/>
<path d="M0 0 C1.05175415 -0.00773437 1.05175415 -0.00773437 2.12475586 -0.015625 C6.39858706 0.04179003 10.03311622 0.5356191 13.9375 2.3125 C14.4325 3.7975 14.4325 3.7975 14.9375 5.3125 C15.9275 5.6425 16.9175 5.9725 17.9375 6.3125 C17.03523682 6.20748169 17.03523682 6.20748169 16.11474609 6.1003418 C9.91494614 5.42337967 3.79761451 5.12037926 -2.4375 5.125 C-3.34781982 5.12435547 -4.25813965 5.12371094 -5.19604492 5.12304688 C-12.00069625 5.17629804 -18.41605361 5.77129504 -25.0625 7.3125 C-24.7325 5.9925 -24.4025 4.6725 -24.0625 3.3125 C-16.00167849 1.34129474 -8.30781567 0.01461518 0 0 Z " fill="#0D0B07" transform="translate(130.0625,36.6875)"/>
<path d="M0 0 C41.03341312 -0.41277905 41.03341312 -0.41277905 59 2 C59 2.66 59 3.32 59 4 C55.66668561 4.02937438 52.33340517 4.04692334 49 4.0625 C48.06542969 4.07087891 47.13085938 4.07925781 46.16796875 4.08789062 C41.49181566 4.10424081 37.03533819 3.92265799 32.3984375 3.25610352 C26.30261486 2.60519574 20.12569961 2.60777416 14 2.4375 C12.54295843 2.39422635 11.08592701 2.3506095 9.62890625 2.30664062 C6.08604588 2.20046698 2.54307037 2.09894889 -1 2 C-0.67 1.34 -0.34 0.68 0 0 Z " fill="#0A0805" transform="translate(115,99)"/>
<path d="M0 0 C2.13098971 3.19648457 2.26809991 4.25370048 1.59765625 7.921875 C-0.95270937 16.78981297 -6.96976642 26.96021369 -14 33 C-14.66 33 -15.32 33 -16 33 C-16.598125 33.9075 -17.19625 34.815 -17.8125 35.75 C-19.94224941 38.91419912 -21.93373561 40.78547572 -25 43 C-25 40 -25 40 -24 37 C-22.46875 35.6328125 -22.46875 35.6328125 -20.5 34.125 C-10.31612998 25.4586546 -3.76404833 12.66088983 0 0 Z " fill="#0C0E10" transform="translate(202,141)"/>
<path d="M0 0 C0 0.33 0 0.66 0 1 C-1.65 1.33 -3.3 1.66 -5 2 C-5 2.33 -5 2.66 -5 3 C-6.207771 3.11275269 -6.207771 3.11275269 -7.43994141 3.2277832 C-10.50099931 3.51759139 -13.56121846 3.81492289 -16.62109375 4.11694336 C-18.5671712 4.30685662 -20.51404858 4.48851624 -22.4609375 4.66992188 C-33.53322802 5.7715018 -44.35973577 7.70658488 -55 11 C-55.33 10.01 -55.66 9.02 -56 8 C-47.29262028 5.08292489 -38.77733367 3.02968461 -29.6875 1.75 C-28.51920654 1.58016602 -27.35091309 1.41033203 -26.1472168 1.23535156 C-17.36368073 0.02768369 -8.85542881 -0.48820128 0 0 Z " fill="#291200" transform="translate(113,79)"/>
<path d="M0 0 C0.99 0 1.98 0 3 0 C3.3125 2.1875 3.3125 2.1875 3 5 C-0.14558356 8.7932037 -3.78679988 11.47207993 -8 14 C-8.66 14 -9.32 14 -10 14 C-11.61989062 10.45648927 -12.10414268 7.87280581 -12 4 C-11.21753906 3.79503906 -10.43507812 3.59007812 -9.62890625 3.37890625 C-8.61699219 3.10949219 -7.60507813 2.84007812 -6.5625 2.5625 C-5.55316406 2.29566406 -4.54382813 2.02882812 -3.50390625 1.75390625 C-1.08247999 1.24021923 -1.08247999 1.24021923 0 0 Z " fill="#F1F1F1" transform="translate(160,193)"/>
<path d="M0 0 C0.33 0 0.66 0 1 0 C0.87547257 7.84522813 -1.35657016 12.47978915 -7 18 C-7.99 18.33 -8.98 18.66 -10 19 C-10.99 15.7 -11.98 12.4 -13 9 C-11.5975 8.2575 -10.195 7.515 -8.75 6.75 C-5.3002362 4.84612092 -2.63852573 2.96834145 0 0 Z " fill="#F1F1F1" transform="translate(164,200)"/>
<path d="M0 0 C10.55808656 3.07517084 10.55808656 3.07517084 15 5 C14.34 7.97 13.68 10.94 13 14 C8.57649669 13.49445676 6.21928398 12.04984798 3 9 C0.49202349 5.54072205 0 4.38746624 0 0 Z " fill="#F0F0F0" transform="translate(93,192)"/>
<path d="M0 0 C0.66 0 1.32 0 2 0 C3.33203125 1.42578125 3.33203125 1.42578125 4.8125 3.3125 C7.2620559 6.28567105 9.51065149 8.25532575 13 10 C12.34 12.97 11.68 15.94 11 19 C5.42781741 16.21390871 3.03494918 12.51344802 0.6875 6.8125 C0 4 0 4 0 0 Z " fill="#EEEEEE" transform="translate(91,199)"/>
<path d="M0 0 C2.70860665 -0.05429278 5.41610901 -0.09381211 8.125 -0.125 C8.88554687 -0.14175781 9.64609375 -0.15851562 10.4296875 -0.17578125 C14.98005729 -0.21500858 18.79678526 0.02278684 23 2 C23.33 2.99 23.66 3.98 24 5 C24.99 5.33 25.98 5.66 27 6 C18.42 5.34 9.84 4.68 1 4 C1 3.67 1 3.34 1 3 C5.95 3 10.9 3 16 3 C16 2.34 16 1.68 16 1 C10.72 1 5.44 1 0 1 C0 0.67 0 0.34 0 0 Z " fill="#2E3028" transform="translate(121,37)"/>
<path d="M0 0 C19.45864662 -0.27067669 19.45864662 -0.27067669 24 2 C24 2.66 24 3.32 24 4 C15.75 3.67 7.5 3.34 -1 3 C-0.67 2.01 -0.34 1.02 0 0 Z " fill="#301500" transform="translate(147,79)"/>
<path d="M0 0 C7.09883934 1.14789743 13.41658619 3.11450374 20 6 C19.01 7.485 19.01 7.485 18 9 C16.7625 8.566875 16.7625 8.566875 15.5 8.125 C11.69204819 6.90101549 7.88729173 5.9383118 4 5 C4 4.34 4 3.68 4 3 C3.01 3 2.02 3 1 3 C0.67 2.01 0.34 1.02 0 0 Z " fill="#13110B" transform="translate(144,39)"/>
<path d="M0 0 C6.27 0.66 12.54 1.32 19 2 C12.98989245 5.00505378 8.6954941 5.20227959 2.125 4.0625 C0.97257813 3.86785156 -0.17984375 3.67320313 -1.3671875 3.47265625 C-2.67042969 3.23869141 -2.67042969 3.23869141 -4 3 C-2.68 2.67 -1.36 2.34 0 2 C0 1.34 0 0.68 0 0 Z " fill="#1E1911" transform="translate(174,101)"/>
<path d="M0 0 C1.32 0 2.64 0 4 0 C4 1.65 4 3.3 4 5 C3.34 4.34 2.68 3.68 2 3 C1.52949219 3.42152344 1.05898437 3.84304687 0.57421875 4.27734375 C-0.04839844 4.82519531 -0.67101562 5.37304688 -1.3125 5.9375 C-1.92738281 6.48277344 -2.54226562 7.02804688 -3.17578125 7.58984375 C-5 9 -5 9 -8 10 C-8.66 9.34 -9.32 8.68 -10 8 C-4.25 4 -4.25 4 -2 4 C-1.34 2.68 -0.68 1.36 0 0 Z " fill="#1D1E1E" transform="translate(162,198)"/>
<path d="M0 0 C0.99 0 1.98 0 3 0 C3 2.97 3 5.94 3 9 C2.34 9 1.68 9 1 9 C0.67 8.34 0.34 7.68 0 7 C-0.99 7 -1.98 7 -3 7 C-3.33 7.66 -3.66 8.32 -4 9 C-5.32 8.01 -6.64 7.02 -8 6 C-4.86650268 4.95550089 -4.01031744 5.06576355 -1 6 C-0.67 4.02 -0.34 2.04 0 0 Z " fill="#2E2E2E" transform="translate(107,200)"/>
<path d="M0 0 C2 3 2 3 1.75 6.5625 C1 10 1 10 -1 12 C-1.99 12.33 -2.98 12.66 -4 13 C-3.52140759 11.39566191 -3.04210442 9.79153584 -2.5625 8.1875 C-2.29566406 7.29417969 -2.02882812 6.40085938 -1.75390625 5.48046875 C-1.19612127 3.64526945 -0.60655425 1.81966274 0 0 Z " fill="#1D1F20" transform="translate(202,141)"/>
<path d="M0 0 C1 3 1 3 -0.125 6.0625 C-2.19821268 9.31053319 -3.35433814 10.01468598 -7 11 C-3.675 2.45 -3.675 2.45 0 0 Z " fill="#121416" transform="translate(200,152)"/>
<path d="M0 0 C0.33 0.66 0.66 1.32 1 2 C1.66 2 2.32 2 3 2 C2.67 3.98 2.34 5.96 2 8 C1.34 8 0.68 8 0 8 C-0.33 8.66 -0.66 9.32 -1 10 C-1.66 9.67 -2.32 9.34 -3 9 C-2.01 6.03 -1.02 3.06 0 0 Z " fill="#343434" transform="translate(104,209)"/>
<path d="M0 0 C2.64 0 5.28 0 8 0 C8 0.99 8 1.98 8 3 C5.03 3 2.06 3 -1 3 C-0.67 2.01 -0.34 1.02 0 0 Z " fill="#070D12" transform="translate(114,38)"/>
<path d="M0 0 C1.2077558 3.62326739 0.54311128 4.64146369 -1 8 C-1.99 8 -2.98 8 -4 8 C-4.33 7.34 -4.66 6.68 -5 6 C-3.78741495 2.76643985 -2.98715542 1.99143695 0 0 Z " fill="#13120D" transform="translate(60,78)"/>
<path d="M0 0 C1.65 0 3.3 0 5 0 C4.67 0.99 4.34 1.98 4 3 C6.31 3 8.62 3 11 3 C11 3.33 11 3.66 11 4 C2.42857143 4.28571429 2.42857143 4.28571429 -1 2 C-0.67 1.34 -0.34 0.68 0 0 Z " fill="#313132" transform="translate(114,226)"/>
<path d="M0 0 C1.98 0 3.96 0 6 0 C5.67 0.66 5.34 1.32 5 2 C4.34 2 3.68 2 3 2 C2.67 3.65 2.34 5.3 2 7 C1.87625 6.360625 1.7525 5.72125 1.625 5.0625 C1.315625 4.0415625 1.315625 4.0415625 1 3 C0.34 2.67 -0.32 2.34 -1 2 C-0.67 1.34 -0.34 0.68 0 0 Z " fill="#060606" transform="translate(148,207)"/>
<path d="M0 0 C0.99 0.33 1.98 0.66 3 1 C3 1.99 3 2.98 3 4 C1.02 4.33 -0.96 4.66 -3 5 C-2.625 3.0625 -2.625 3.0625 -2 1 C-1.34 0.67 -0.68 0.34 0 0 Z " fill="#282828" transform="translate(156,191)"/>
<path d="M0 0 C1.65 1.65 3.3 3.3 5 5 C3.68 5.99 2.36 6.98 1 8 C0.67 5.36 0.34 2.72 0 0 Z " fill="#DDDDDD" transform="translate(91,212)"/>
<path d="M0 0 C0.33 0.99 0.66 1.98 1 3 C1.99 3.33 2.98 3.66 4 4 C2.02 4.33 0.04 4.66 -2 5 C-2.33 3.68 -2.66 2.36 -3 1 C-2.01 0.67 -1.02 0.34 0 0 Z " fill="#010101" transform="translate(107,206)"/>
<path d="M0 0 C1.32 0 2.64 0 4 0 C4 1.65 4 3.3 4 5 C3.34 4.34 2.68 3.68 2 3 C1.01 3.495 1.01 3.495 0 4 C-0.66 3.34 -1.32 2.68 -2 2 C-1.34 1.34 -0.68 0.68 0 0 Z " fill="#404040" transform="translate(162,198)"/>
<path d="M0 0 C4.29 0 8.58 0 13 0 C13 0.33 13 0.66 13 1 C8.71 1 4.42 1 0 1 C0 0.67 0 0.34 0 0 Z " fill="#000000" transform="translate(122,252)"/>
<path d="M0 0 C4 1 4 1 4 1 Z " fill="#000000" transform="translate(11,211)"/>
<path d="M0 0 C4 1 4 1 4 1 Z " fill="#000000" transform="translate(11,44)"/>
<path d="M0 0 C3 1 3 1 3 1 Z " fill="#000000" transform="translate(136,251)"/>
<path d="M0 0 C3 1 3 1 3 1 Z " fill="#000000" transform="translate(118,251)"/>
<path d="" fill="#000000" transform="translate(0,0)"/>
<path d="" fill="#000000" transform="translate(0,0)"/>
<path d="" fill="#000000" transform="translate(0,0)"/>
<path d="" fill="#000000" transform="translate(0,0)"/>
<path d="" fill="#000000" transform="translate(0,0)"/>
<path d="M0 0 C2 1 2 1 2 1 Z " fill="#000000" transform="translate(251,239)"/>
<path d="" fill="#000000" transform="translate(0,0)"/>
<path d="" fill="#000000" transform="translate(0,0)"/>
<path d="" fill="#000000" transform="translate(0,0)"/>
<path d="M0 0 C2 1 2 1 2 1 Z " fill="#000000" transform="translate(248,213)"/>
<path d="M0 0 C2 1 2 1 2 1 Z " fill="#000000" transform="translate(19,213)"/>
<path d="M0 0 C2 1 2 1 2 1 Z " fill="#000000" transform="translate(246,212)"/>
<path d="M0 0 C2 1 2 1 2 1 Z " fill="#000000" transform="translate(238,212)"/>
<path d="M0 0 C2 1 2 1 2 1 Z " fill="#000000" transform="translate(8,212)"/>
<path d="" fill="#000000" transform="translate(0,0)"/>
<path d="" fill="#000000" transform="translate(0,0)"/>
<path d="M0 0 C2 1 2 1 2 1 Z " fill="#000000" transform="translate(246,43)"/>
<path d="M0 0 C2 1 2 1 2 1 Z " fill="#000000" transform="translate(238,43)"/>
<path d="M0 0 C2 1 2 1 2 1 Z " fill="#000000" transform="translate(8,43)"/>
<path d="M0 0 C2 1 2 1 2 1 Z " fill="#000000" transform="translate(248,42)"/>
<path d="M0 0 C2 1 2 1 2 1 Z " fill="#000000" transform="translate(19,42)"/>
<path d="" fill="#000000" transform="translate(0,0)"/>
<path d="" fill="#000000" transform="translate(0,0)"/>
<path d="M0 0 C2 1 2 1 2 1 Z " fill="#000000" transform="translate(251,16)"/>
<path d="" fill="#000000" transform="translate(0,0)"/>
<path d="" fill="#000000" transform="translate(0,0)"/>
<path d="" fill="#000000" transform="translate(0,0)"/>
<path d="" fill="#000000" transform="translate(0,0)"/>
<path d="" fill="#000000" transform="translate(0,0)"/>
<path d="" fill="#000000" transform="translate(0,0)"/>
<path d="" fill="#000000" transform="translate(0,0)"/>
<path d="" fill="#000000" transform="translate(0,0)"/>
<path d="" fill="#000000" transform="translate(0,0)"/>
<path d="" fill="#000000" transform="translate(0,0)"/>
<path d="" fill="#000000" transform="translate(0,0)"/>
<path d="" fill="#000000" transform="translate(0,0)"/>
<path d="" fill="#000000" transform="translate(0,0)"/>
<path d="" fill="#000000" transform="translate(0,0)"/>
<path d="" fill="#000000" transform="translate(0,0)"/>
<path d="" fill="#000000" transform="translate(0,0)"/>
<path d="" fill="#000000" transform="translate(0,0)"/>
<path d="" fill="#000000" transform="translate(0,0)"/>
<path d="" fill="#000000" transform="translate(0,0)"/>
<path d="" fill="#000000" transform="translate(0,0)"/>
<path d="" fill="#000000" transform="translate(0,0)"/>
<path d="" fill="#000000" transform="translate(0,0)"/>
<path d="" fill="#000000" transform="translate(0,0)"/>
<path d="" fill="#000000" transform="translate(0,0)"/>
<path d="" fill="#000000" transform="translate(0,0)"/>
<path d="" fill="#000000" transform="translate(0,0)"/>
<path d="" fill="#000000" transform="translate(0,0)"/>
<path d="" fill="#000000" transform="translate(0,0)"/>
<path d="" fill="#000000" transform="translate(0,0)"/>
<path d="" fill="#000000" transform="translate(0,0)"/>
<path d="" fill="#000000" transform="translate(0,0)"/>
<path d="" fill="#000000" transform="translate(0,0)"/>
<path d="" fill="#000000" transform="translate(0,0)"/>
<path d="" fill="#000000" transform="translate(0,0)"/>
<path d="" fill="#000000" transform="translate(0,0)"/>
<path d="" fill="#000000" transform="translate(0,0)"/>
<path d="" fill="#000000" transform="translate(0,0)"/>
<path d="" fill="#000000" transform="translate(0,0)"/>
<path d="" fill="#000000" transform="translate(0,0)"/>
<path d="" fill="#000000" transform="translate(0,0)"/>
<path d="" fill="#000000" transform="translate(0,0)"/>
<path d="" fill="#000000" transform="translate(0,0)"/>
<path d="" fill="#000000" transform="translate(0,0)"/>
<path d="" fill="#000000" transform="translate(0,0)"/>
<path d="" fill="#000000" transform="translate(0,0)"/>
<path d="" fill="#000000" transform="translate(0,0)"/>
<path d="" fill="#000000" transform="translate(0,0)"/>
<path d="" fill="#000000" transform="translate(0,0)"/>
<path d="" fill="#000000" transform="translate(0,0)"/>
<path d="" fill="#000000" transform="translate(0,0)"/>
<path d="" fill="#000000" transform="translate(0,0)"/>
<path d="" fill="#000000" transform="translate(0,0)"/>
<path d="" fill="#000000" transform="translate(0,0)"/>
<path d="" fill="#000000" transform="translate(0,0)"/>
<path d="" fill="#000000" transform="translate(0,0)"/>
<path d="" fill="#000000" transform="translate(0,0)"/>
<path d="" fill="#000000" transform="translate(0,0)"/>
<path d="" fill="#000000" transform="translate(0,0)"/>
<path d="" fill="#000000" transform="translate(0,0)"/>
<path d="" fill="#000000" transform="translate(0,0)"/>
<path d="" fill="#000000" transform="translate(0,0)"/>
<path d="" fill="#000000" transform="translate(0,0)"/>
<path d="" fill="#000000" transform="translate(0,0)"/>
<path d="" fill="#000000" transform="translate(0,0)"/>
<path d="" fill="#000000" transform="translate(0,0)"/>
<path d="" fill="#000000" transform="translate(0,0)"/>
<path d="" fill="#000000" transform="translate(0,0)"/>
<path d="" fill="#000000" transform="translate(0,0)"/>
<path d="" fill="#000000" transform="translate(0,0)"/>
<path d="" fill="#000000" transform="translate(0,0)"/>
<path d="" fill="#000000" transform="translate(0,0)"/>
<path d="" fill="#000000" transform="translate(0,0)"/>
<path d="" fill="#000000" transform="translate(0,0)"/>
<path d="" fill="#000000" transform="translate(0,0)"/>
<path d="" fill="#000000" transform="translate(0,0)"/>
<path d="" fill="#000000" transform="translate(0,0)"/>
<path d="" fill="#000000" transform="translate(0,0)"/>
<path d="" fill="#000000" transform="translate(0,0)"/>
<path d="" fill="#000000" transform="translate(0,0)"/>
<path d="" fill="#000000" transform="translate(0,0)"/>
<path d="" fill="#000000" transform="translate(0,0)"/>
<path d="" fill="#000000" transform="translate(0,0)"/>
<path d="" fill="#000000" transform="translate(0,0)"/>
<path d="" fill="#000000" transform="translate(0,0)"/>
<path d="" fill="#000000" transform="translate(0,0)"/>
<path d="" fill="#000000" transform="translate(0,0)"/>
<path d="" fill="#000000" transform="translate(0,0)"/>
<path d="" fill="#000000" transform="translate(0,0)"/>
<path d="" fill="#000000" transform="translate(0,0)"/>
<path d="" fill="#000000" transform="translate(0,0)"/>
<path d="" fill="#000000" transform="translate(0,0)"/>
<path d="" fill="#000000" transform="translate(0,0)"/>
<path d="" fill="#000000" transform="translate(0,0)"/>
<path d="" fill="#000000" transform="translate(0,0)"/>
<path d="" fill="#000000" transform="translate(0,0)"/>
<path d="" fill="#000000" transform="translate(0,0)"/>
<path d="" fill="#000000" transform="translate(0,0)"/>
<path d="" fill="#000000" transform="translate(0,0)"/>
<path d="" fill="#000000" transform="translate(0,0)"/>
<path d="" fill="#000000" transform="translate(0,0)"/>
<path d="" fill="#000000" transform="translate(0,0)"/>
<path d="" fill="#000000" transform="translate(0,0)"/>
<path d="" fill="#000000" transform="translate(0,0)"/>
<path d="" fill="#000000" transform="translate(0,0)"/>
<path d="" fill="#000000" transform="translate(0,0)"/>
<path d="" fill="#000000" transform="translate(0,0)"/>
<path d="" fill="#000000" transform="translate(0,0)"/>
<path d="" fill="#000000" transform="translate(0,0)"/>
<path d="" fill="#000000" transform="translate(0,0)"/>
<path d="" fill="#000000" transform="translate(0,0)"/>
<path d="" fill="#000000" transform="translate(0,0)"/>
<path d="" fill="#000000" transform="translate(0,0)"/>
<path d="" fill="#000000" transform="translate(0,0)"/>
<path d="" fill="#000000" transform="translate(0,0)"/>
<path d="" fill="#000000" transform="translate(0,0)"/>
<path d="" fill="#000000" transform="translate(0,0)"/>
<path d="" fill="#000000" transform="translate(0,0)"/>
<path d="" fill="#000000" transform="translate(0,0)"/>
<path d="" fill="#000000" transform="translate(0,0)"/>
<path d="" fill="#000000" transform="translate(0,0)"/>
<path d="" fill="#000000" transform="translate(0,0)"/>
<path d="" fill="#000000" transform="translate(0,0)"/>
<path d="" fill="#000000" transform="translate(0,0)"/>
<path d="" fill="#000000" transform="translate(0,0)"/>
<path d="" fill="#000000" transform="translate(0,0)"/>
<path d="" fill="#000000" transform="translate(0,0)"/>
<path d="" fill="#000000" transform="translate(0,0)"/>
<path d="" fill="#000000" transform="translate(0,0)"/>
<path d="" fill="#000000" transform="translate(0,0)"/>
<path d="" fill="#000000" transform="translate(0,0)"/>
<path d="" fill="#000000" transform="translate(0,0)"/>
<path d="" fill="#000000" transform="translate(0,0)"/>
<path d="" fill="#000000" transform="translate(0,0)"/>
<path d="" fill="#000000" transform="translate(0,0)"/>
<path d="" fill="#000000" transform="translate(0,0)"/>
<path d="" fill="#000000" transform="translate(0,0)"/>
<path d="" fill="#000000" transform="translate(0,0)"/>
<path d="" fill="#000000" transform="translate(0,0)"/>
<path d="" fill="#000000" transform="translate(0,0)"/>
<path d="" fill="#000000" transform="translate(0,0)"/>
<path d="" fill="#000000" transform="translate(0,0)"/>
<path d="" fill="#000000" transform="translate(0,0)"/>
<path d="" fill="#000000" transform="translate(0,0)"/>
<path d="" fill="#000000" transform="translate(0,0)"/>
<path d="" fill="#000000" transform="translate(0,0)"/>
<path d="" fill="#000000" transform="translate(0,0)"/>
<path d="" fill="#000000" transform="translate(0,0)"/>
<path d="" fill="#000000" transform="translate(0,0)"/>
<path d="" fill="#000000" transform="translate(0,0)"/>
<path d="" fill="#000000" transform="translate(0,0)"/>
<path d="" fill="#000000" transform="translate(0,0)"/>
<path d="" fill="#000000" transform="translate(0,0)"/>
<path d="" fill="#000000" transform="translate(0,0)"/>
<path d="" fill="#000000" transform="translate(0,0)"/>
<path d="" fill="#000000" transform="translate(0,0)"/>
<path d="" fill="#000000" transform="translate(0,0)"/>
<path d="" fill="#000000" transform="translate(0,0)"/>
<path d="" fill="#000000" transform="translate(0,0)"/>
<path d="" fill="#000000" transform="translate(0,0)"/>
<path d="" fill="#000000" transform="translate(0,0)"/>
<path d="" fill="#000000" transform="translate(0,0)"/>
<path d="" fill="#000000" transform="translate(0,0)"/>
<path d="" fill="#000000" transform="translate(0,0)"/>
<path d="" fill="#000000" transform="translate(0,0)"/>
<path d="" fill="#000000" transform="translate(0,0)"/>
<path d="" fill="#000000" transform="translate(0,0)"/>
<path d="" fill="#000000" transform="translate(0,0)"/>
<path d="" fill="#000000" transform="translate(0,0)"/>
<path d="" fill="#000000" transform="translate(0,0)"/>
<path d="" fill="#000000" transform="translate(0,0)"/>
<path d="" fill="#000000" transform="translate(0,0)"/>
<path d="" fill="#000000" transform="translate(0,0)"/>
<path d="" fill="#000000" transform="translate(0,0)"/>
<path d="" fill="#000000" transform="translate(0,0)"/>
<path d="" fill="#000000" transform="translate(0,0)"/>
<path d="" fill="#000000" transform="translate(0,0)"/>
<path d="" fill="#000000" transform="translate(0,0)"/>
<path d="" fill="#000000" transform="translate(0,0)"/>
<path d="" fill="#000000" transform="translate(0,0)"/>
<path d="" fill="#000000" transform="translate(0,0)"/>
<path d="" fill="#000000" transform="translate(0,0)"/>
<path d="" fill="#000000" transform="translate(0,0)"/>
<path d="" fill="#000000" transform="translate(0,0)"/>
<path d="" fill="#000000" transform="translate(0,0)"/>
<path d="" fill="#000000" transform="translate(0,0)"/>
<path d="" fill="#000000" transform="translate(0,0)"/>
<path d="" fill="#000000" transform="translate(0,0)"/>
<path d="" fill="#000000" transform="translate(0,0)"/>
<path d="" fill="#000000" transform="translate(0,0)"/>
<path d="" fill="#000000" transform="translate(0,0)"/>
<path d="" fill="#000000" transform="translate(0,0)"/>
<path d="" fill="#000000" transform="translate(0,0)"/>
<path d="" fill="#000000" transform="translate(0,0)"/>
<path d="" fill="#000000" transform="translate(0,0)"/>
<path d="" fill="#000000" transform="translate(0,0)"/>
<path d="" fill="#000000" transform="translate(0,0)"/>
<path d="" fill="#000000" transform="translate(0,0)"/>
<path d="" fill="#000000" transform="translate(0,0)"/>
<path d="" fill="#000000" transform="translate(0,0)"/>
<path d="" fill="#000000" transform="translate(0,0)"/>
<path d="" fill="#000000" transform="translate(0,0)"/>
<path d="" fill="#000000" transform="translate(0,0)"/>
<path d="" fill="#000000" transform="translate(0,0)"/>
<path d="" fill="#000000" transform="translate(0,0)"/>
<path d="" fill="#000000" transform="translate(0,0)"/>
<path d="" fill="#000000" transform="translate(0,0)"/>
<path d="" fill="#000000" transform="translate(0,0)"/>
<path d="" fill="#000000" transform="translate(0,0)"/>
<path d="" fill="#000000" transform="translate(0,0)"/>
<path d="" fill="#000000" transform="translate(0,0)"/>
<path d="" fill="#000000" transform="translate(0,0)"/>
<path d="" fill="#000000" transform="translate(0,0)"/>
<path d="" fill="#000000" transform="translate(0,0)"/>
<path d="" fill="#000000" transform="translate(0,0)"/>
<path d="" fill="#000000" transform="translate(0,0)"/>
<path d="" fill="#000000" transform="translate(0,0)"/>
<path d="" fill="#000000" transform="translate(0,0)"/>
<path d="" fill="#000000" transform="translate(0,0)"/>
<path d="" fill="#000000" transform="translate(0,0)"/>
<path d="" fill="#000000" transform="translate(0,0)"/>
<path d="" fill="#000000" transform="translate(0,0)"/>
<path d="" fill="#000000" transform="translate(0,0)"/>
<path d="" fill="#000000" transform="translate(0,0)"/>
<path d="" fill="#000000" transform="translate(0,0)"/>
<path d="" fill="#000000" transform="translate(0,0)"/>
<path d="" fill="#000000" transform="translate(0,0)"/>
<path d="" fill="#000000" transform="translate(0,0)"/>
<path d="" fill="#000000" transform="translate(0,0)"/>
<path d="" fill="#000000" transform="translate(0,0)"/>
<path d="" fill="#000000" transform="translate(0,0)"/>
<path d="" fill="#000000" transform="translate(0,0)"/>
<path d="" fill="#000000" transform="translate(0,0)"/>
<path d="" fill="#000000" transform="translate(0,0)"/>
<path d="" fill="#000000" transform="translate(0,0)"/>
<path d="" fill="#000000" transform="translate(0,0)"/>
<path d="" fill="#000000" transform="translate(0,0)"/>
<path d="" fill="#000000" transform="translate(0,0)"/>
</svg>
